<?xml version="1.0" encoding="UTF-8"?>
<svg version="1.1" fill="#22ccaa" viewBox="70 50 392 400" xmlns="http://www.w3.org/2000/svg">
<path d="m132 123c-1.0499 0.9552-1.0499 0.9552-2.1211 1.9297-25.093 23.476-42.489 59.66-48.879 93.07-0.22212 1.1488-0.22212 1.1488-0.44873 2.3208-7.0131 38.1-2.0859 76.295 14.3 111.23 0.34966 0.75475 0.69932 1.5095 1.0596 2.2871 1.0401 2.1724 1.0401 2.1724 2.3574 4.0977 1.889 3.0045 2.8201 5.0422 2.5098 8.6355-0.75951 3.217-1.7269 6.2987-2.7783 9.4329-0.41585 1.2992-0.83017 2.5988-1.2432 3.8989-1.1661 3.6288-2.3759 7.2417-3.5992 10.852-0.7988 2.3598-1.5899 4.7222-2.3793 7.0852-2.2619 6.7606-4.5382 13.515-6.9028 20.24-0.64886 1.8478-1.2904 3.6982-1.9317 5.5486-0.76984 2.2168-1.553 4.429-2.3525 6.6353-2.7731 8.0322-4.4513 16.128-0.90381 24.177 2.8616 4.9272 6.8001 8.0591 12.312 9.5625 8.8793 0.86444 16.445-2.1185 24.688-5 1.4809-0.50645 2.9622-1.0119 4.4438-1.5164 9.1599-3.1328 18.264-6.4126 27.35-9.7549 5.9762-2.1906 11.972-4.3035 18.019-6.2913 0.77199-0.26402 1.544-0.52803 2.3394-0.80005 8.1427-2.6148 13.214-0.31286 20.536 3.425 50.083 24.565 107.76 25.443 160.11 7.8325 32.741-11.421 32.741-11.421 57.512-33.895 2.1688-6.3199 1.6378-12.316-1.1875-18.312-3.1482-5.72-6.6633-8.5606-12.812-10.688-10.134-1.3617-16.514 1.5087-24.879 6.832-38.104 24.179-84.305 30.654-128.12 21.168-13.938-3.144-27.079-8.6316-39.598-15.48-0.74959-0.4096-1.4992-0.8192-2.2715-1.2412-1.4125-0.783-2.817-1.5808-4.2109-2.3965-8.0556-4.5187-14.722-4.3949-23.521-1.9419-6.7281 2.0981-13.379 4.4024-20.024 6.7476-2.1806 0.76674-4.3616 1.5319-6.544 2.2934-1.3456 0.46975-2.69 0.9426-4.0333 1.4189-4.5736 1.6002-4.5736 1.6002-6.7977 1.6002 0.39381-1.1436 0.78762-2.2873 1.1934-3.4656 1.4737-4.2967 2.9209-8.602 4.3608-12.91 0.62351-1.8536 1.2539-3.7049 1.8916-5.5537 6.3957-17.436 6.3957-17.436 4.0542-35.383-0.80673-1.5764-1.6445-3.137-2.5-4.6875-19.594-36.681-24.22-76.144-12.613-116.19 7.733-24.915 23.323-49.256 43.613-65.807 0.92426-0.76184 1.8485-1.5237 2.8008-2.3086 30.229-24.395 69.349-35.758 107.99-32.453 37.83 4.0685 73.921 20.632 98.943 49.917 21.35 26.798 33.73 57.202 33.578 91.719-0.0027342 0.98647-0.0027342 0.98647-0.0055237 1.9929-0.086006 18.439-2.6151 36.543-16.307 50.132-5.3453 4.3899-11.257 4.6949-18.004 4.4297-3.228-0.46294-5.5791-1.1992-7.8674-3.6358-4.6307-7.3598-5.7142-15.247-5.627-23.754-0.0082782-1.551-0.0082782-1.551-0.016724-3.1333-0.0092596-2.2239-0.0094757-4.4479-0.0014057-6.6718 0.012708-3.5232 0.0012695-7.0456-0.016035-10.569-0.026608-6.2049-0.032299-12.41-0.030899-18.615 0.0022352-9.9442-0.011919-19.888-0.055586-29.832-0.0098208-3.465-0.0011328-6.9296 0.0086956-10.395-0.0061445-2.1275-0.013056-4.2549-0.020859-6.3824 0.011579-1.4371 0.011579-1.4371 0.023392-2.9033-0.054627-7.2274-1.4989-11.726-5.5798-17.789-4.1429-4.0509-7.6766-5.5555-13.457-5.9141-7.0298 0.25563-12.255 2.2645-17.355 7.1641-3.265 4.4387-4.5558 8.4424-4 14-1.1463-0.99948-2.292-1.9996-3.4375-3-0.74121-0.64066-1.4824-1.2813-2.2461-1.9414-1.4653-1.3022-2.9002-2.6401-4.2891-4.0234-8.5246-8.2946-20.488-14.172-32.027-17.035-0.75281-0.20238-1.5056-0.40477-2.2812-0.61328-23.544-5.341-48.402 0.15262-68.742 12.57-23.579 16.183-37.931 39.034-43.227 67.105-3.4839 23.485 2.5571 48.431 16.262 67.777 1.9269 2.4569 3.9293 4.8134 5.9883 7.1602 0.61359 0.75668 1.2272 1.5134 1.8594 2.293 14.439 17.333 36.467 27.977 58.723 30.461 22.188 1.5975 43.619-2.7073 61.418-16.754 5.3817-4.8543 10.973-9.9588 15-16 0.47309 0.83402 0.94617 1.668 1.4336 2.5273 8.0615 13.719 17.876 24.02 33.71 28.377 19.063 4.6815 38.194 2.0637 55.169-7.8423 20.758-13.789 31.299-35.269 36.602-59.055 4.2387-21.049 3.9298-45.105-0.91406-66.008-0.17692-0.78085-0.35385-1.5617-0.53613-2.3662-9.2692-39.975-31.432-78.656-64.464-103.63-0.9191-0.72316-1.8382-1.4463-2.7852-2.1914-71.529-55.356-173.66-53.839-256.21 16.191z"/>
</svg>

